<svg xmlns="http://www.w3.org/2000/svg" width="40" height="39.167" viewBox="0 0 40 39.167"><g transform="translate(0 -0.416)"><path d="M20,.416A20.092,20.092,0,0,0,13.68,39.549c1,.185,1.365-.435,1.365-.968,0-.478-.017-1.74-.028-3.415C9.455,36.379,8.28,32.474,8.28,32.474a5.3,5.3,0,0,0-2.22-2.938c-1.817-1.245.135-1.22.135-1.22a4.2,4.2,0,0,1,3.063,2.07c1.785,3.068,4.683,2.182,5.823,1.667a4.286,4.286,0,0,1,1.27-2.685c-4.44-.507-9.11-2.23-9.11-9.922a7.783,7.783,0,0,1,2.06-5.39,7.236,7.236,0,0,1,.2-5.312S11.175,8.2,15,10.8a18.878,18.878,0,0,1,10.015,0c3.817-2.6,5.495-2.057,5.495-2.057a7.246,7.246,0,0,1,.2,5.313,7.768,7.768,0,0,1,2.055,5.39c0,7.712-4.675,9.41-9.13,9.908a4.8,4.8,0,0,1,1.358,3.718c0,2.685-.025,4.85-.025,5.507,0,.538.36,1.163,1.375.965A20.094,20.094,0,0,0,20,.416Z"/></g></svg>