<svg xmlns="http://www.w3.org/2000/svg" width="40" height="40" viewBox="0 0 40 40"><path d="M27.5,0h-15A12.5,12.5,0,0,0,0,12.5v15A12.5,12.5,0,0,0,12.5,40h15A12.5,12.5,0,0,0,40,27.5v-15A12.5,12.5,0,0,0,27.5,0Zm8.75,27.5a8.76,8.76,0,0,1-8.75,8.75h-15A8.76,8.76,0,0,1,3.75,27.5v-15A8.76,8.76,0,0,1,12.5,3.75h15a8.76,8.76,0,0,1,8.75,8.75Z"/><path d="M20,10A10,10,0,1,0,30,20,10,10,0,0,0,20,10Zm0,16.25A6.25,6.25,0,1,1,26.25,20,6.259,6.259,0,0,1,20,26.25Z"/><circle cx="1.332" cy="1.332" r="1.332" transform="translate(29.417 7.918)"/></svg>