<svg xmlns="http://www.w3.org/2000/svg" width="40" height="40" viewBox="0 0 40 40"><path d="M20,0h-.01A19.988,19.988,0,0,0,3.807,31.722l-2.492,7.43L9,36.695A20,20,0,1,0,20,0ZM31.642,28.243c-.482,1.362-2.4,2.492-3.925,2.822-1.045.222-2.41.4-7-1.505-5.877-2.435-9.662-8.407-9.957-8.795S8.38,17.6,8.38,14.732a6.385,6.385,0,0,1,2.045-4.868,2.906,2.906,0,0,1,2.045-.717c.248,0,.47.013.67.023.588.025.883.06,1.27.988.483,1.163,1.658,4.032,1.8,4.327a1.19,1.19,0,0,1,.085,1.083,3.456,3.456,0,0,1-.648.918c-.3.34-.575.6-.87.965-.27.317-.575.657-.235,1.245a17.752,17.752,0,0,0,3.245,4.033,14.7,14.7,0,0,0,4.69,2.892,1.265,1.265,0,0,0,1.41-.222,24.2,24.2,0,0,0,1.563-2.07,1.116,1.116,0,0,1,1.435-.435c.54.188,3.4,1.6,3.985,1.892s.975.435,1.117.682A4.981,4.981,0,0,1,31.642,28.243Z"/></svg>